HIERARCHY
ROOT Hips
{
 OFFSET 0.000000 0.000000 0.000000
 CHANNELS 6 Xposition Yposition Zposition Yrotation Xrotation Zrotation
 JOINT Chest
 {
  OFFSET 0.000000 9.585900 0.002600
  CHANNELS 3 Yrotation Xrotation Zrotation
  JOINT Chest2
  {
   OFFSET 0.000000 9.601200 -0.005300
   CHANNELS 3 Yrotation Xrotation Zrotation
   JOINT Chest3
   {
    OFFSET 0.000000 9.561800 0.000000
    CHANNELS 3 Yrotation Xrotation Zrotation
    JOINT Chest4
    {
     OFFSET 0.000000 9.552100 0.000000
     CHANNELS 3 Yrotation Xrotation Zrotation
     JOINT Neck
     {
      OFFSET 0.000000 14.453000 0.000000
      CHANNELS 3 Yrotation Xrotation Zrotation
      JOINT Head
      {
       OFFSET 0.000000 8.936500 -0.011300
       CHANNELS 3 Yrotation Xrotation Zrotation
       End Site
       {
        OFFSET 0.000000 17.073600 -0.006000
       }
      }
     }
     JOINT RightCollar
     {
      OFFSET -2.921100 9.558500 0.000000
      CHANNELS 3 Yrotation Xrotation Zrotation
      JOINT RightShoulder
      {
       OFFSET -13.519700 0.000000 0.000000
       CHANNELS 3 Yrotation Xrotation Zrotation
       JOINT RightElbow
       {
        OFFSET 0.000000 -29.696600 0.000000
        CHANNELS 3 Yrotation Xrotation Zrotation
        JOINT RightWrist
        {
         OFFSET 0.000000 -24.004700 0.000000
         CHANNELS 3 Yrotation Xrotation Zrotation
         End Site
         {
          OFFSET 0.000000 -17.728500 0.000000
         }
        }
       }
      }
     }
     JOINT LeftCollar
     {
      OFFSET 2.921100 9.558500 0.000000
      CHANNELS 3 Yrotation Xrotation Zrotation
      JOINT LeftShoulder
      {
       OFFSET 13.519700 0.000000 0.000000
       CHANNELS 3 Yrotation Xrotation Zrotation
       JOINT LeftElbow
       {
        OFFSET 0.000000 -29.696600 0.000000
        CHANNELS 3 Yrotation Xrotation Zrotation
        JOINT LeftWrist
        {
         OFFSET 0.000000 -24.004700 0.000000
         CHANNELS 3 Yrotation Xrotation Zrotation
         End Site
         {
          OFFSET 0.000000 -17.728500 0.000000
         }
        }
       }
      }
     }
    }
   }
  }
 }
 JOINT RightHip
 {
  OFFSET -7.771700 -0.012900 -0.001300
  CHANNELS 3 Yrotation Xrotation Zrotation
  JOINT RightKnee
  {
   OFFSET 0.000000 -40.869800 0.001200
   CHANNELS 3 Yrotation Xrotation Zrotation
   JOINT RightAnkle
   {
    OFFSET 0.000000 -39.717900 0.002100
    CHANNELS 3 Yrotation Xrotation Zrotation
    JOINT RightToe
    {
     OFFSET 0.000000 -4.965400 11.033500
     CHANNELS 3 Yrotation Xrotation Zrotation
     End Site
     {
      OFFSET 0.000000 -1.423100 5.872300
     }
    }
   }
  }
 }
 JOINT LeftHip
 {
  OFFSET 7.771700 -0.012900 -0.001300
  CHANNELS 3 Yrotation Xrotation Zrotation
  JOINT LeftKnee
  {
   OFFSET 0.000000 -40.869800 0.001200
   CHANNELS 3 Yrotation Xrotation Zrotation
   JOINT LeftAnkle
   {
    OFFSET 0.000000 -39.717900 0.002100
    CHANNELS 3 Yrotation Xrotation Zrotation
    JOINT LeftToe
    {
     OFFSET 0.000000 -4.965400 11.033500
     CHANNELS 3 Yrotation Xrotation Zrotation
     End Site
     {
      OFFSET 0.000000 -1.423100 5.872300
     }
    }
   }
  }
 }
}
MOTION
Frames: 16
Frame Time: 0.008333
0.000000 85.388000 0.000000 0.000000 -5.767877 0.000000 0.000000 11.653817 0.000000 0.000000 -5.885947 0.000000 0.000000 -0.000000 0.000000 0.000000 -0.000000 0.000000 0.000000 12.528835 0.000000 0.000000 0.711642 0.000000 0.000000 -0.000000 0.000000 0.000000 0.000000 -90.000000 0.000000 -2.309062 0.000000 0.000000 2.309062 0.000000 0.000000 -0.000000 0.000000 0.000000 -0.000000 90.000000 0.000000 -2.309062 0.000000 0.000000 2.309062 0.000000 0.000000 8.520406 0.000000 0.000000 1.905762 0.000000 -0.000000 -4.658285 0.000000 0.000000 -0.000000 0.000000 0.000000 8.520406 0.000000 0.000000 1.905762 0.000000 -0.000000 -4.658285 0.000000 0.000000 -0.000000 0.000000
-219.513483 57.746480 25.268517 177.573228 -48.556998 -5.209809 6.100287 22.122768 3.386388 3.198599 12.684898 1.687964 4.083971 15.839324 2.237859 3.198613 12.684848 1.687992 0.088186 10.309686 4.776614 -1.978192 -16.496698 9.199268 2.542647 3.058547 1.278679 -17.551684 -24.359415 1.798678 -114.637437 -58.375941 141.258711 3.940380 -6.684298 -33.253681 -11.256542 -2.791073 -0.413940 -2.499339 -18.342794 10.572278 27.063373 -28.899080 -74.122550 -0.864237 -21.492832 29.585069 6.212574 -22.797202 -1.156178 -46.317201 71.279878 -49.588788 4.153639 -13.580751 13.340339 -0.189595 -0.199878 -0.116872 -8.183104 -22.715942 8.270033 60.274918 77.828424 59.816106 5.032940 -15.244980 -18.663027 0.299659 0.175336 0.151556
-219.503521 57.749447 25.273051 177.433219 -48.617949 -5.115542 6.087873 22.134597 3.445394 3.164551 12.691994 1.712290 4.042055 15.848230 2.267326 3.164583 12.692015 1.712346 0.026499 10.401383 4.685023 -2.048627 -16.327663 9.043371 2.485068 3.085448 1.255014 -17.708198 -24.393727 1.770340 -114.781000 -58.509701 141.323472 4.061841 -5.890706 -32.018641 -11.282618 -2.761682 -0.439937 -2.401973 -18.277258 10.550197 27.028420 -28.966904 -74.050444 -0.573170 -21.475216 29.536349 6.234417 -22.771073 -1.168852 -46.228854 71.322260 -49.478152 4.172607 -13.560572 13.262507 -0.165040 -0.209931 -0.114222 -8.113097 -22.645670 8.275937 60.197631 77.817190 59.738529 5.047497 -15.211375 -18.689544 0.290529 0.156944 0.149319
-219.490789 57.752428 25.278947 177.337101 -48.679215 -5.060843 6.046598 22.148249 3.510584 3.130778 12.698149 1.736609 4.000477 15.855959 2.296777 3.130783 12.698211 1.736659 -0.039758 10.501178 4.595831 -2.128535 -16.143213 8.893593 2.439889 3.106348 1.233939 -17.813215 -24.438371 1.723586 -114.881384 -58.621494 141.345789 4.221976 -5.099662 -30.828761 -11.306145 -2.732883 -0.466862 -2.310319 -18.212792 10.527529 26.987501 -29.027893 -73.968319 -0.285211 -21.460649 29.491155 6.249898 -22.732820 -1.167517 -46.169781 71.348786 -49.369917 4.146578 -13.545330 13.191251 -0.117423 -0.204740 -0.103680 -8.075388 -22.572064 8.290687 60.132944 77.808469 59.664311 5.076694 -15.195443 -18.704126 0.279101 0.155877 0.139542
-219.475432 57.756080 25.285366 177.268468 -48.745129 -5.033573 5.988053 22.165920 3.582824 3.096925 12.703059 1.760604 3.958791 15.862051 2.325809 3.096900 12.703108 1.760593 -0.111901 10.608391 4.509920 -2.220661 -15.944541 8.752136 2.408354 3.125337 1.217446 -17.869301 -24.487942 1.659563 -114.893487 -58.682432 141.286287 4.457097 -4.305811 -29.643415 -11.326270 -2.700234 -0.495024 -2.226455 -18.152179 10.507267 26.946074 -29.077710 -73.878661 -0.007282 -21.447120 29.445816 6.273151 -22.680328 -1.147399 -46.152061 71.358752 -49.291936 4.095215 -13.537936 13.161809 -0.056444 -0.186773 -0.094489 -8.060759 -22.490734 8.312547 60.069784 77.799685 59.591575 5.106921 -15.186643 -18.718613 0.253325 0.161974 0.124055
-219.468231 57.755848 25.294286 177.142255 -48.787342 -4.906973 5.941489 22.160381 3.592331 3.064032 12.706601 1.784491 3.918280 15.866369 2.354730 3.063998 12.706617 1.784450 -0.191403 10.721294 4.428023 -2.328189 -15.734483 8.621421 2.384005 3.142683 1.209564 -17.877877 -24.536308 1.582337 -114.826316 -58.702867 141.149363 4.758980 -3.485248 -28.417642 -11.345258 -2.663150 -0.520158 -2.146643 -18.095534 10.486502 26.902747 -29.120862 -73.785567 0.262285 -21.434131 29.405103 6.250354 -22.678823 -1.222348 -45.952668 71.445232 -49.113677 4.142434 -13.513268 13.124782 -0.071673 -0.211751 -0.125223 -7.993310 -22.442262 8.279145 60.030076 77.787218 59.529883 5.126966 -15.178762 -18.726245 0.235083 0.165066 0.114709
-219.454665 57.757571 25.302730 177.077610 -48.837722 -4.857651 5.869536 22.161449 3.636913 3.032563 12.709282 1.808748 3.879607 15.869624 2.384140 3.032551 12.709275 1.808725 -0.278844 10.837029 4.350885 -2.453059 -15.518206 8.503236 2.362897 3.155937 1.208828 -17.839295 -24.578667 1.495726 -114.712642 -58.706721 140.962863 5.108886 -2.600608 -27.109997 -11.364305 -2.624005 -0.540314 -2.069237 -18.043567 10.462073 26.852642 -29.160110 -73.687025 0.525466 -21.423959 29.372440 6.202591 -22.656325 -1.253397 -45.786890 71.511917 -48.943827 4.150776 -13.532592 13.056372 -0.055181 -0.187035 -0.119853 -7.961458 -22.385552 8.275306 59.994149 77.779434 59.489105 5.178730 -15.129963 -18.724656 0.177605 0.139628 0.087475
-219.434634 57.760360 25.311339 177.003862 -48.892474 -4.833669 5.817609 22.162611 3.718279 3.001284 12.711705 1.832934 3.841248 15.872582 2.413475 3.001313 12.711668 1.832935 -0.375344 10.952819 4.277803 -2.597317 -15.300843 8.396745 2.347053 3.164803 1.210792 -17.757266 -24.612556 1.401284 -114.579164 -58.710544 140.755512 5.481267 -1.649011 -25.681705 -11.379604 -2.585714 -0.559400 -1.994716 -17.996319 10.435726 26.796138 -29.188894 -73.582049 0.778129 -21.414390 29.342596 6.201802 -22.620388 -1.232944 -45.713124 71.545437 -48.820385 4.140172 -13.534274 12.983510 -0.022148 -0.176313 -0.117278 -7.936725 -22.321059 8.298478 59.906393 77.771473 59.430968 5.203724 -15.103684 -18.768330 0.187996 0.130563 0.085110
-219.426675 57.762059 25.318834 176.893167 -48.943762 -4.702648 5.757198 22.167389 3.714961 2.970113 12.713211 1.857112 3.802948 15.874442 2.442802 2.970132 12.713169 1.857130 -0.482966 11.066983 4.207917 -2.764333 -15.085479 8.301198 2.337236 3.174124 1.214917 -17.644238 -24.642927 1.301288 -114.441865 -58.729487 140.553758 5.845224 -0.645799 -24.102714 -11.388511 -2.547061 -0.579362 -1.924576 -17.952950 10.407357 26.737734 -29.205584 -73.474146 1.016224 -21.402186 29.313290 6.195106 -22.594506 -1.310580 -45.527663 71.613838 -48.673179 4.187367 -13.530459 12.974509 -0.064407 -0.186237 -0.141195 -7.878880 -22.262334 8.249155 59.864387 77.757815 59.363450 5.217481 -15.093726 -18.779388 0.180538 0.128412 0.080556
-219.414816 57.765219 25.325540 176.792651 -49.002037 -4.595712 5.697211 22.178695 3.729772 2.940329 12.713270 1.881532 3.766247 15.874574 2.472410 2.940299 12.713268 1.881549 -0.603486 11.178561 4.141462 -2.957614 -14.873769 8.217824 2.331227 3.187518 1.221991 -17.520272 -24.674498 1.200866 -114.279586 -58.769345 140.351575 6.192813 0.409926 -22.359149 -11.395222 -2.504359 -0.596718 -1.860959 -17.913675 10.374346 26.681244 -29.217856 -73.362704 1.244040 -21.389918 29.281068 6.214206 -22.553967 -1.359494 -45.413056 71.658165 -48.564540 4.201510 -13.528303 12.998022 -0.077182 -0.184594 -0.156799 -7.838168 -22.191456 8.215862 59.819171 77.742828 59.290119 5.238866 -15.086301 -18.790591 0.158593 0.132495 0.073651
-219.394689 57.768791 25.333036 176.672308 -49.058711 -4.516650 5.665901 22.182973 3.791585 2.912613 12.712531 1.905893 3.732181 15.873642 2.502059 2.912588 12.712561 1.905912 -0.739199 11.286565 4.078323 -3.181663 -14.667248 8.147445 2.326463 3.201754 1.230795 -17.399995 -24.705170 1.102189 -114.029467 -58.816113 140.101040 6.549128 1.511456 -20.458226 -11.402892 -2.458776 -0.609845 -1.803649 -17.879047 10.335687 26.623238 -29.231925 -73.245147 1.471435 -21.381476 29.244164 6.180824 -22.532615 -1.387154 -45.200905 71.753143 -48.286705 4.170672 -13.521923 12.853845 -0.009255 -0.178099 -0.130896 -7.866722 -22.098735 8.228864 59.795402 77.707470 59.197615 5.293962 -15.086234 -18.812929 0.124251 0.156930 0.055273
-219.373929 57.770991 25.341598 176.569777 -49.100729 -4.448077 5.618804 22.175196 3.852208 2.886408 12.711490 1.930627 3.700152 15.872189 2.532314 2.886416 12.711532 1.930657 -0.893315 11.390768 4.017396 -3.442101 -14.466081 8.089199 2.322407 3.211503 1.237794 -17.286522 -24.735743 1.004061 -113.648106 -58.856453 139.760274 6.942331 2.641455 -18.424530 -11.408495 -2.415915 -0.623522 -1.751483 -17.845709 10.291754 26.559371 -29.246922 -73.125403 1.703476 -21.375589 29.208474 6.156735 -22.520699 -1.408030 -45.034218 71.832288 -48.076413 4.158752 -13.522996 12.739602 0.020383 -0.171783 -0.101929 -7.826880 -22.048033 8.233631 59.720852 77.700646 59.131594 5.315269 -15.067251 -18.837126 0.115645 0.150887 0.047711
-219.351551 57.775910 25.347800 176.473295 -49.160564 -4.385605 5.571192 22.188049 3.920557 2.860986 12.710315 1.956378 3.669111 15.870593 2.563806 2.860992 12.710350 1.956397 -1.068548 11.491881 3.957468 -3.743459 -14.268879 8.041771 2.321341 3.213061 1.242864 -17.179695 -24.769036 0.906181 -113.147425 -58.883301 139.334579 7.386553 3.795744 -16.272941 -11.410363 -2.378934 -0.641478 -1.704377 -17.809640 10.245862 26.493415 -29.256973 -73.013331 1.935760 -21.369253 29.176825 6.195159 -22.475574 -1.405501 -44.985128 71.868424 -47.951881 4.109713 -13.533516 12.649428 0.069613 -0.147782 -0.063327 -7.840077 -21.963037 8.237866 59.686505 77.677170 59.066158 5.364698 -15.056307 -18.873474 0.087104 0.160418 0.038260
-219.333211 57.778985 25.354697 176.355528 -49.205163 -4.275670 5.523940 22.190316 3.956686 2.836428 12.708760 1.982977 3.639169 15.868598 2.596356 2.836401 12.708782 1.983008 -1.265732 11.590225 3.897705 -4.086843 -14.075057 8.003808 2.325795 3.208398 1.249532 -17.080190 -24.807230 0.809784 -112.550089 -58.886965 138.843424 7.889690 4.983009 -13.976905 -11.412102 -2.344456 -0.661871 -1.659159 -17.772405 10.201274 26.430834 -29.257635 -72.915426 2.167138 -21.362382 29.143068 6.189145 -22.458974 -1.451105 -44.814734 71.946990 -47.763386 4.100944 -13.531905 12.578054 0.083735 -0.147538 -0.066854 -7.831343 -21.897015 8.208819 59.638729 77.658586 58.987530 5.400070 -15.053044 -18.898911 0.081439 0.168906 0.022699
-219.314982 57.779627 25.363452 176.221076 -49.227533 -4.145679 5.481197 22.171708 3.984243 2.813008 12.706348 2.009635 3.610673 15.865556 2.629003 2.812947 12.706390 2.009671 -1.483032 11.684561 3.838245 -4.468744 -13.886766 7.974695 2.335365 3.200794 1.259893 -16.983834 -24.850853 0.716520 -111.856118 -58.858523 138.287276 8.459515 6.214785 -11.495873 -11.414271 -2.309291 -0.683890 -1.611980 -17.735121 10.160110 26.368398 -29.249448 -72.832529 2.402989 -21.361703 29.102401 6.135204 -22.479217 -1.528665 -44.524147 72.067150 -47.500024 4.149528 -13.522303 12.507326 0.060445 -0.166300 -0.083364 -7.796262 -21.858163 8.164081 59.461073 77.658532 58.835640 5.437709 -15.027255 -18.973410 0.115024 0.159003 0.028451
-219.296347 57.782641 25.369973 176.083221 -49.264534 -4.007245 5.439033 22.167453 4.009338 2.789972 12.703469 2.035142 3.582595 15.861953 2.660149 2.789926 12.703525 2.035112 -1.717458 11.772135 3.779724 -4.883913 -13.709144 7.954485 2.347650 3.189784 1.274234 -16.880969 -24.898297 0.626619 -111.038776 -58.784449 137.647084 9.109208 7.493478 -8.820393 -11.413269 -2.275235 -0.709423 -1.563327 -17.694735 10.126019 26.299411 -29.233761 -72.763745 2.636730 -21.375384 29.061606 6.130389 -22.474955 -1.600143 -44.313017 72.160090 -47.280405 4.174289 -13.519960 12.430053 0.069280 -0.169756 -0.076146 -7.756034 -21.804359 8.117838 59.424125 77.637048 58.773894 5.483568 -15.018363 -18.995854 0.094266 0.163583 0.014501
